<svg xmlns="http://www.w3.org/2000/svg" fill="none" viewBox="0 0 64 62"><g clip-path="url(#a)"><path fill="#2563EB" fill-rule="evenodd" d="M60.952 56.89c0 .854-.69 1.549-1.53 1.549H4.578c-.848 0-1.53-.69-1.53-1.549V15.38H60.952V56.89ZM4.578 3.076H59.422c.843 0 1.523.684 1.529 1.538l.001.01v7.679H3.048V4.624l.001-.01a1.543 1.543 0 0 1 1.529-1.538ZM59.422 0c2.525 0 4.57 2.06 4.577 4.614l.001.01V56.89c0 2.555-2.057 4.625-4.578 4.625H4.578C2.05 61.515 0 59.449 0 56.89V4.62A4.616 4.616 0 0 1 3.049.285C3.528.11 4.038 0 4.578 0h54.844ZM35.047 21.827c-.24.168-.452.385-.566.68l-.217.561-5.143 13.26-4.635 11.958a1.54 1.54 0 0 0 .864 1.992 1.52 1.52 0 0 0 1.975-.87l1.796-4.639 5.926-15.285 2.27-5.856c.072-.184.098-.374.098-.56 0-.615-.358-1.196-.96-1.433-.49-.194-1.004-.09-1.408.192Zm-16.145 4.767-2.14 2.16-5.395 5.443a1.546 1.546 0 0 0 0 2.175l5.395 5.445 2.14 2.161c.596.6 1.559.6 2.155 0a1.546 1.546 0 0 0 0-2.175l-4.294-4.335-2.164-2.184 2.163-2.182 4.295-4.333a1.546 1.546 0 0 0 0-2.175 1.512 1.512 0 0 0-2.155 0Zm24.211 0a1.546 1.546 0 0 0 0 2.174l1.93 1.949 4.526 4.567-4.525 4.571-1.93 1.949a1.546 1.546 0 0 0 0 2.174c.528.532 1.336.566 1.93.15.073-.052.157-.082.224-.15l7.535-7.606c.596-.6.596-1.574 0-2.175l-7.535-7.603c-.067-.066-.151-.098-.224-.15-.594-.414-1.402-.385-1.93.15ZM7.62 6.151A1.53 1.53 0 0 0 6.095 7.69c0 .85.681 1.538 1.524 1.538a1.53 1.53 0 0 0 1.524-1.538 1.53 1.53 0 0 0-1.524-1.538Zm4.572 0a1.53 1.53 0 0 0-1.524 1.538c0 .85.68 1.538 1.524 1.538a1.53 1.53 0 0 0 1.523-1.538 1.53 1.53 0 0 0-1.524-1.538Zm4.57 0a1.53 1.53 0 0 0-1.523 1.538c0 .85.681 1.538 1.524 1.538a1.53 1.53 0 0 0 1.524-1.538 1.53 1.53 0 0 0-1.524-1.538Z" clip-rule="evenodd"/></g><defs><clipPath id="a"><path fill="#fff" d="M0 0h64v61.515H0z"/></clipPath></defs></svg>
