<svg xmlns="http://www.w3.org/2000/svg" width="16" height="16" fill="currentColor" viewBox="0 0 17 16"><path fill-rule="evenodd" d="M8.065 0C3.61 0 0 3.672 0 8.202c0 3.625 2.31 6.7 5.515 7.784.403.076.551-.178.551-.395 0-.195-.007-.841-.01-1.527-2.244.496-2.718-.968-2.718-.968-.367-.948-.895-1.2-.895-1.2-.732-.509.055-.498.055-.498.81.057 1.236.845 1.236.845.72 1.254 1.887.891 2.347.682.072-.53.281-.893.512-1.097-1.791-.208-3.674-.91-3.674-4.054 0-.895.315-1.627.83-2.202-.083-.206-.36-1.04.079-2.17 0 0 .677-.22 2.218.84a7.608 7.608 0 0 1 2.019-.276 7.627 7.627 0 0 1 2.02.276c1.54-1.06 2.216-.84 2.216-.84.439 1.13.162 1.964.079 2.17.517.575.83 1.307.83 2.202 0 3.15-1.887 3.844-3.683 4.047.29.255.547.754.547 1.52 0 1.097-.009 1.98-.009 2.25 0 .219.145.474.554.394 3.203-1.086 5.51-4.16 5.51-7.783C16.13 3.672 12.52 0 8.065 0Z" clip-rule="evenodd"/></svg>
