<svg xmlns="http://www.w3.org/2000/svg" fill="none" viewBox="0 0 800 800"><g clip-path="url(#a)"><path fill="#000" d="M399.933 0C178.867 0 0 178.9 0 400a399.732 399.732 0 0 0 400 400c221.1 0 400-178.9 400-400C799.967 178.9 619.6 0 399.933 0Zm-187.6 485.833c13.067 17.434 30.534 24.734 55.234 24.734 11.666 0 23.3-1.467 33.466-5.834 10.2-4.333 21.834-10.2 36.334-18.9L378.133 544c-33.433 27.667-71.266 40.733-114.9 40.733-34.933 0-64-7.266-90.166-21.8a146.424 146.424 0 0 1-58.2-64C101.8 471.267 94.5 439.267 94.5 401.433c0-36.333 7.3-69.8 20.333-97.433a154.102 154.102 0 0 1 58.267-66.9c24.7-16 55.233-23.267 88.7-23.267 23.3 0 45.1 2.9 62.567 10.167a188.011 188.011 0 0 1 53.8 32l-40.734 55.267A159.514 159.514 0 0 0 304 292.333c-10.167-4.333-23.267-5.8-34.933-5.8-49.434 0-74.167 37.8-74.167 114.867-1.433 39.333 5.833 66.933 17.467 84.4l-.034.033Zm400 90.167c-14.533 45.1-36.366 78.567-66.933 103.267-30.533 24.766-71.267 37.833-122.167 42.2l-10.166-68.334c33.433-4.4 58.166-11.666 74.166-23.333 5.8-4.333 17.467-17.433 17.467-17.433l-120.733-386.9H484.3L554.133 514.9l74.2-289.433h97.434L612.333 576Z"/></g><defs><clipPath id="a"><path fill="#fff" d="M0 0h800v800H0z"/></clipPath></defs></svg>
