<svg xmlns="http://www.w3.org/2000/svg" fill="none" viewBox="0 0 800 800"><path fill="#2396ED" d="m617.1 226.8 7.5-11.35 13.1 7.95 5.8 4.15c14 10.8 43.45 38.4 49.8 84.2 11.15-2 22.4-3 33.65-3 26.7 0 44.65 6.2 54.85 11.35l5.25 2.85 3.4 2.25L800 333l-3.3 10a102.192 102.192 0 0 1-23.5 36.5c-14.5 14.95-40 32.6-80.45 34.9l-8.9.25h-7.4c-18.5 48.85-43.35 103.9-85.1 153.3a354.056 354.056 0 0 1-87 74.4 397.053 397.053 0 0 1-127.45 48.4C344.7 697 312 700.1 279.25 700c-72.5 0-136.5-14.4-175.85-39.6-35.15-22.45-62.15-59.1-80.3-108.85A412.5 412.5 0 0 1 .05 410.05a25.802 25.802 0 0 1 21.6-25.8l3.4-.25h527l4.6-.35 7.45-.8c12.8-1.7 32.3-5.5 46-13.5-16.4-27.15-21.05-58.9-13.4-92.7a164.986 164.986 0 0 1 15-40.5l5.4-9.35Zm-472.6 62.4 2 .35a6.351 6.351 0 0 1 3.85 4.1l.3 2v65.75l-.3 2.05a6.347 6.347 0 0 1-3.9 4.1l-1.95.3H73.9a6.203 6.203 0 0 1-5.85-4.4l-.35-2V295.6l.35-2a6.352 6.352 0 0 1 3.9-4.15l1.95-.3 70.6.05Zm97.35 0 1.95.35a6.34 6.34 0 0 1 3.9 4.1l.3 2v65.75l-.35 2.05a6.347 6.347 0 0 1-3.9 4.1l-1.95.3h-70.6a6.25 6.25 0 0 1-5.85-4.4l-.35-1.95v-65.85a6.502 6.502 0 0 1 4.25-6.15l1.95-.35 70.65.05Zm98.8 0 1.95.35a6.351 6.351 0 0 1 3.85 4.1l.35 2v65.75l-.35 2.05a6.347 6.347 0 0 1-3.9 4.1l-1.95.3H270a6.204 6.204 0 0 1-5.85-4.4l-.3-2V295.6l.3-2a6.352 6.352 0 0 1 3.9-4.15l1.95-.3 70.65.05Zm97.6 0 1.95.35a6.34 6.34 0 0 1 3.9 4.1l.35 2v65.75a6.502 6.502 0 0 1-4.25 6.15l-2 .3h-70.55a6.204 6.204 0 0 1-5.85-4.4l-.3-2V295.6l.3-2a6.352 6.352 0 0 1 3.9-4.15l2-.3h70.6l-.05.05Zm98.5 0 1.95.35a6.34 6.34 0 0 1 3.9 4.1l.3 2v65.75a6.502 6.502 0 0 1-4.25 6.15l-1.95.3h-70.6a6.204 6.204 0 0 1-5.85-4.4l-.3-2V295.6l.3-2a6.352 6.352 0 0 1 3.9-4.15l2-.3h70.55l.05.05Zm-295-94.6 2 .35a6.35 6.35 0 0 1 3.85 4.05l.35 2.05v65.75a6.502 6.502 0 0 1-4.25 6.15l-1.95.35H171.2a6.25 6.25 0 0 1-5.85-4.5l-.35-2v-65.75a6.505 6.505 0 0 1 4.25-6.1l1.95-.35h70.55Zm98.8 0 2 .35a6.35 6.35 0 0 1 3.85 4.05l.35 2.05v65.75a6.502 6.502 0 0 1-4.25 6.15l-1.95.35H270a6.25 6.25 0 0 1-5.85-4.5l-.3-2v-65.75l.3-2a6.347 6.347 0 0 1 3.9-4.1l1.95-.35h70.55Zm97.65 0c2.7 0 5 1.85 5.85 4.4l.35 2.05v65.75a6.502 6.502 0 0 1-4.25 6.15l-2 .35h-70.5a6.25 6.25 0 0 1-5.85-4.5l-.3-2v-65.75l.3-2a6.347 6.347 0 0 1 3.9-4.1l2-.35h70.6-.1Zm0-94.6c2.7 0 5 1.85 5.85 4.4l.35 2v65.8a6.502 6.502 0 0 1-4.25 6.15l-2 .3h-70.5a6.204 6.204 0 0 1-5.85-4.4l-.3-2V106.4l.3-2a6.347 6.347 0 0 1 3.9-4.1l1.95-.3h70.6-.05Z"/></svg>
