<svg xmlns="http://www.w3.org/2000/svg" fill="none" viewBox="0 0 800 800"><path fill="#000" d="M192.4 569.95h415.275L400.05 689.8 192.4 569.95Zm251-434.725 207.625 119.9v239.75L443.4 135.225Zm-86.675 0-207.6 359.65v-239.75l207.6-119.9Zm43.35-11.575 239.3 414.575H160.7L400.075 123.65Zm0-50.025-282.7 163.2v326.4l282.7 163.2 282.625-163.2v-326.4l-282.625-163.2ZM133.2 179.15c-36.9 0-66.8 29.9-66.8 66.8s29.9 66.8 66.8 66.8 66.8-29.9 66.8-66.8c0-12.3-3.325-23.825-9.125-33.725l.175.325c-11.775-20.1-33.25-33.4-57.85-33.4Zm0 308.125c0 21.3 17.275 38.55 38.575 38.55 21.3 0 38.575-17.275 38.575-38.575 0-21.3-17.275-38.575-38.575-38.575-21.3 0-38.55 17.25-38.575 38.55v.05ZM400.05 641.3c-36.9 0-66.8 29.9-66.8 66.8s29.9 66.8 66.8 66.8 66.8-29.9 66.8-66.8c0-12.3-3.325-23.825-9.125-33.725l.175.325c-11.775-20.1-33.25-33.4-57.85-33.4Zm266.8-154.05c-36.9 0-66.8 29.9-66.8 66.8s29.9 66.8 66.8 66.8 66.8-29.9 66.8-66.8c0-12.3-3.325-23.825-9.125-33.725l.175.325c-11.775-20.1-33.25-33.4-57.85-33.4Zm0-308.1c-36.9 0-66.8 29.9-66.8 66.8s29.9 66.8 66.8 66.8 66.8-29.9 66.8-66.8c0-12.3-3.325-23.825-9.125-33.725l.175.325c-11.775-20.1-33.25-33.4-57.85-33.4ZM400.05 25.1c-36.9 0-66.8 29.9-66.8 66.8s29.9 66.8 66.8 66.8 66.8-29.9 66.8-66.8c0-12.3-3.325-23.825-9.125-33.725l.175.325c-11.775-20.1-33.25-33.4-57.85-33.4Z"/></svg>
