<svg xmlns="http://www.w3.org/2000/svg" fill="none" viewBox="0 0 800 800"><path fill="#326DE6" d="M225 728.45A55.095 55.095 0 0 0 268.7 750h262.55c16.75 0 33-8.25 43.75-21.7l162.9-208.9c10.7-13.9 14.4-31.65 10.7-48.9l-58.25-260.35a56.4 56.4 0 0 0-30.3-38.85L424.35 55.8A53.099 53.099 0 0 0 400.1 50c-8.4 0-16.75 1.9-24.25 5.75l-235.75 116a56.445 56.445 0 0 0-30.25 38.85L51.6 471c-4.2 17.25 0 35 10.7 48.9L225 728.4v.05Z"/><path fill="#fff" fill-rule="evenodd" d="M637.05 456.4c4.9.1 9.8.5 14.65 1.2l2.9.65 1.55.4a15.397 15.397 0 0 1 10.566 6.425 15.397 15.397 0 0 1 2.434 12.125 15.289 15.289 0 0 1-13.486 11.878 15.3 15.3 0 0 1-6.314-.728h-.2l-.15-.05-.15-.1a76.487 76.487 0 0 0-1.5-.3l-2.5-.5a127.596 127.596 0 0 1-13.7-5.3 143.388 143.388 0 0 0-26.65-7.85 12.098 12.098 0 0 0-8.55 3.2 230.52 230.52 0 0 0-6.55-1.15 198.549 198.549 0 0 1-88.2 110.6c.75 2.1 1.6 4.15 2.55 6.15a11.947 11.947 0 0 0-1.15 9c3.7 8.5 8.25 16.6 13.55 24.2 3 3.9 5.7 8 8.2 12.2l1.4 2.85.6 1.25a15.297 15.297 0 0 1-1.534 17.92 15.3 15.3 0 0 1-17.516 4.08 15.41 15.41 0 0 1-8.6-9l-.5-1a79.688 79.688 0 0 1-1.4-2.9 127.316 127.316 0 0 1-4.45-14 141.825 141.825 0 0 0-10.5-25.6 12.103 12.103 0 0 0-7.8-4.75l-1.5-2.65-1.75-3.2a198.497 198.497 0 0 1-141.15-.35l-3.5 6.25a12.5 12.5 0 0 0-6.6 3.2 106.505 106.505 0 0 0-11.85 27.4 125.785 125.785 0 0 1-4.4 14 60.04 60.04 0 0 1-1.25 2.5l-.65 1.35c-.72 2.022-1.858 3.919-3.339 5.473a15.295 15.295 0 0 1-11.524 4.735 15.3 15.3 0 0 1-6.187-1.508 15.404 15.404 0 0 1-8.65-15.7 15.3 15.3 0 0 1 2.05-6l.7-1.5 1.3-2.6c2.5-4.25 5.2-8.3 8.2-12.2 5.4-7.8 10-16.1 13.85-24.8a15.1 15.1 0 0 0-1.4-8.65l2.8-6.65A198.603 198.603 0 0 1 211 476.6l-6.7 1.15a16.995 16.995 0 0 0-8.8-3.1 143.562 143.562 0 0 0-26.65 7.8c-4.5 2-9.05 3.75-13.7 5.25-.829.204-1.662.388-2.5.55l-1.5.35H151l-.1.1h-.25a15.4 15.4 0 0 1-19.85-17.45A15.302 15.302 0 0 1 143.85 459l.25-.05h.1l.3-.1c1.2-.3 2.7-.7 3.8-.9 4.85-.65 9.75-1.05 14.65-1.15 9.3-.65 18.5-2.15 27.45-4.5a21.109 21.109 0 0 0 6.55-6.65l6.4-1.85a196.9 196.9 0 0 1 31.25-137.6l-4.9-4.35a16.895 16.895 0 0 0-3.1-8.8 142.685 142.685 0 0 0-22.75-15.95 127.85 127.85 0 0 1-12.7-7.4l-2.4-1.9-.75-.65-.2-.15a16.154 16.154 0 0 1-3.8-22.5 14.754 14.754 0 0 1 12.2-5.35 18.252 18.252 0 0 1 10.65 4l1.1.85c.8.65 1.7 1.3 2.3 1.85 3.6 3.35 6.95 6.95 10.1 10.65 6.25 6.85 13.15 13.1 20.6 18.6 2.8 1.5 6.05 1.8 9.1.9l5.5 3.9a196.9 196.9 0 0 1 127.6-61.2l.4-6.45a16.593 16.593 0 0 0 4.95-7.9c.335-9.25-.235-18.511-1.7-27.65a128.163 128.163 0 0 1-2.1-14.5v-4.35a15.289 15.289 0 0 1 3.894-11.835A15.29 15.29 0 0 1 400 141a15.396 15.396 0 0 1 11.37 5.048 15.395 15.395 0 0 1 3.93 11.802v4.35a126.505 126.505 0 0 1-2.05 14.5 142.513 142.513 0 0 0-1.75 27.65 12.098 12.098 0 0 0 5 7.65v.35l.35 6.45c48.35 4.4 93.5 26.1 127 61.15l5.8-4.1c3.132.543 6.354.196 9.3-1 7.45-5.5 14.35-11.8 20.6-18.65 3.15-3.75 6.5-7.3 10.1-10.65l2.55-2 .85-.7a15.345 15.345 0 0 1 11.695-4.423 15.335 15.335 0 0 1 11.105 5.744 15.337 15.337 0 0 1 2.862 5.716c.543 2.084.64 4.26.286 6.385A15.344 15.344 0 0 1 612.1 266.7l-1.2 1c-.75.6-1.5 1.25-2.15 1.7a126.847 126.847 0 0 1-12.7 7.4 143.478 143.478 0 0 0-22.75 16 12.048 12.048 0 0 0-2.9 8.6l-2.5 2.2-2.9 2.65c27.1 40.3 38.5 89.15 31.85 137.25l6.15 1.8c1.55 2.75 3.85 5.05 6.65 6.6 8.95 2.4 18.15 3.9 27.4 4.5ZM364.55 262c5.35-1.2 10.8-2.15 16.3-2.8l-4.5 80-.4.2a13.395 13.395 0 0 1-4.572 9.55 13.404 13.404 0 0 1-10.078 3.25 13.496 13.496 0 0 1-6.75-2.5l-.1.05-65.8-46.5c20.95-20.5 47.25-34.8 75.9-41.25Zm80.9 87.5 65.4-46.2a159.1 159.1 0 0 0-91.65-44.1l4.5 79.9h.1a13.406 13.406 0 0 0 9.311 12.229 13.42 13.42 0 0 0 5.389.571 13.496 13.496 0 0 0 6.75-2.5l.2.1Zm112.4 82.8-77.4-22.3-.1-.3a13.508 13.508 0 0 1-9.25-17.15 13.497 13.497 0 0 1 4-6l-.1-.05 59.75-53.35c18.3 29.7 26.35 64.5 23 99.15h.1ZM454.8 475l30.9 74.5a157.402 157.402 0 0 0 63.75-79.9l-79.65-13.45-.1.15a13 13 0 0 0-8.3 1.15 13.498 13.498 0 0 0-6.5 17.4l-.1.15Zm-19.25 95.25c-28.65 6.5-58.5 5-86.35-4.4l38.85-70c1.153-2.143 2.914-3.935 5.002-5.185a13.493 13.493 0 0 1 13.824-.029 13.497 13.497 0 0 1 4.974 5.164h.3l38.95 70.1a164.18 164.18 0 0 1-15.55 4.35Zm-120.9-21.1 30.55-73.7-.2-.3a13.396 13.396 0 0 0-1.837-13.736 13.406 13.406 0 0 0-13.013-4.764l-.15-.15-78.95 13.35a158 158 0 0 0 63.6 79.3Zm-49.85-216 60.05 53.55-.05.35a13.447 13.447 0 0 1 .856 19.438 13.463 13.463 0 0 1-6.156 3.662l-.05.25-77 22.15a156.698 156.698 0 0 1 22.35-99.4Zm147.5 57.7h-24.6l-15.35 19 5.5 23.8L400 444.3l22.1-10.6 5.5-23.8-15.3-19.05Z" clip-rule="evenodd"/></svg>
