<svg xmlns="http://www.w3.org/2000/svg" fill="none" viewBox="0 0 800 800"><path fill="url(#a)" d="m415.5 750-18.775-6.225s2.5-95-31.875-101.675c-22.5-26.2 3.325-1118.525 85.575-3.725A67.802 67.802 0 0 0 417.1 676.45a352.547 352.547 0 0 0-1.6 73.55Z"/><path fill="url(#b)" d="M425.65 658.225a330.576 330.576 0 0 0 125-330.625C513.9 165.475 426.875 112.175 417.5 91.825a244.758 244.758 0 0 1-20.625-40L403.8 503.55s-14.35 138.05 21.85 154.675Z"/><path fill="url(#c)" d="M387.175 664.225S234.15 560 243 375.625a388.507 388.507 0 0 1 137.975-291.2A43.118 43.118 0 0 0 396.15 50c9.525 20.5 7.975 306.075 8.975 339.475C409 519.4 397.9 639.7 387.175 664.225Z"/><defs><linearGradient id="a" x1="289.291" x2="505.083" y1="406.308" y2="479.536" gradientUnits="userSpaceOnUse"><stop offset=".231" stop-color="#999875"/><stop offset=".563" stop-color="#9B9977"/><stop offset=".683" stop-color="#A09F7E"/><stop offset=".768" stop-color="#A9A889"/><stop offset=".837" stop-color="#B7B69A"/><stop offset=".896" stop-color="#C9C7B0"/><stop offset=".948" stop-color="#DEDDCB"/><stop offset=".994" stop-color="#F8F6EB"/><stop offset="1" stop-color="#FBF9EF"/></linearGradient><linearGradient id="b" x1="368.424" x2="463.824" y1="48.597" y2="644.321" gradientUnits="userSpaceOnUse"><stop stop-color="#48A547"/><stop offset="1" stop-color="#3F9143"/></linearGradient><linearGradient id="c" x1="229.837" x2="485.852" y1="393.876" y2="308.136" gradientUnits="userSpaceOnUse"><stop stop-color="#41A247"/><stop offset=".352" stop-color="#4BA74B"/><stop offset=".956" stop-color="#67B554"/><stop offset="1" stop-color="#69B655"/></linearGradient></defs></svg>
