<svg xmlns="http://www.w3.org/2000/svg" fill="none" viewBox="0 0 800 800"><g clip-path="url(#a)"><path fill="#000" d="m804.3 780.4-16.933-16.133c-8.367-11.034-17.267-20.8-26.967-29.7l-.167-.134a460.22 460.22 0 0 0-31.033-25.8c-8.6-5.911-20.422-13.033-35.467-21.366-12.366-5.567-22.033-15.334-27.266-27.467l-.134-.333-1.6-.8c7.067-.7 13.534-2 19.734-3.834l-.767.2 19-5.233c7.867-2.467 16.967-4.067 26.4-4.433h.2c9.933-.4 19.3-2 28.233-4.634l-.833.2A295.728 295.728 0 0 0 770 637.3c4.556-1.356 8.456-2.567 11.7-3.633v-5.634c-3.222-4.822-7.122-10.333-11.7-16.533-4.367-5.933-9.267-11.1-14.767-15.6l-.166-.133a843.395 843.395 0 0 0-43.434-35.867c-13.2-10.3-28.166-20.8-43.7-30.534l-2.266-1.333c-8.2-5.4-17.6-10.4-27.5-14.5l-1.134-.4a420.337 420.337 0 0 1-29.433-13.3c-3.233-1.6-7-3-10.9-3.966l-.367-.067c-3.9-.8-7.233-2.8-9.666-5.633l-.034-.034c-4.6-6.066-8.633-12.966-11.833-20.3l-.267-.667a261.464 261.464 0 0 0-10.466-21.7 1329.282 1329.282 0 0 1-23.4-47.566 1655.83 1655.83 0 0 1-21.7-48.4 569.86 569.86 0 0 1-13.3-32.233c-4.467-11.8-9.5-21.9-15.367-31.4l.433.766c-14.4-24.533-28.766-45.466-44.366-65.366l.933 1.266c-15.433-19.466-31.433-36.866-48.633-53l-.267-.233a587.407 587.407 0 0 0-54.4-45.2l-1.633-1.167c-19.911-14.466-41.689-28.71-65.334-42.733-9.5-5.6-20.533-10.167-32.166-13.1l-.867-.2-37.1-9.267-20.967-1.6c-6.977-.533-13.966-.8-20.966-.8-4.934-2.6-9.167-5.7-12.9-9.3-3.667-3.5-7.634-6.8-11.767-9.833l-.333-.233c-20.167-11.767-43.6-22.534-68.1-31L69.033 6C62.6 2.233 54.867.033 46.633.033A45.16 45.16 0 0 0 30 3.2l.3-.1C17.633 8.133 7.967 18.366 3.8 31.1l-.1.333C1.267 37.166-.133 43.8-.133 50.8c0 12.267 4.333 23.5 11.566 32.267l-.066-.1c12.089 16.11 21.355 28.777 27.8 38 4.822 6.466 9.8 13.188 14.933 20.166 4.7 6.267 8.867 13.434 12.233 21l.267.7c1.867 3.967 3.5 8.7 4.7 13.567l.1.533c1.067 4.578 2.411 9.556 4.033 14.934a785.945 785.945 0 0 1 13.7 38c4.7 14.166 9.9 26.166 15.934 37.6l-.634-1.334a887.275 887.275 0 0 0 9.7 17.334A230.238 230.238 0 0 0 124.6 300a28.926 28.926 0 0 0 8.033 8.066l.1.067c3.3 2.4 5.467 6.167 5.634 10.434-3.8 5.6-6.367 12.333-7.234 19.566l-.033.2c-1.167 8.433-2.833 15.934-5.1 23.167l.267-1c-7.434 22.2-11.7 47.8-11.7 74.366 0 8.6.433 17.067 1.333 25.434l-.1-1.033c2 31.933 11.633 61.266 27.067 86.666l-.467-.833c6.567 9.833 13.6 18.4 21.367 26.233 5.6 6.267 13.733 10.2 22.8 10.2 5.066 0 9.866-1.233 14.066-3.433l-.166.067c11.666-4.2 19.966-14.867 20.566-27.567v-.067c1.6-15.8 4-29.933 7.3-43.733l-.433 2.233c.8-2.1 1.267-4.5 1.267-7.033 0-.5-.034-1-.067-1.5v.067c-.267-2.423 1.211-4.712 4.433-6.867v1.6a809.401 809.401 0 0 0 10.067 22.567 905.19 905.19 0 0 0 10.867 22.566C264.3 555.4 274.733 568.467 286.2 580.5l-.1-.1c11.5 12.4 24.033 23.533 37.567 33.367l.733.5a130.24 130.24 0 0 1 18.867 17.6l.133.133a64.873 64.873 0 0 0 18.667 15.133l.333.167v-.8h1.6c-1.3-2.9-3.4-5.233-6-6.833l-.067-.034c-2.633-1.466-4.9-2.933-7.033-4.533l.167.1c-4.823-4.822-9.8-10.2-14.934-16.133-5.133-5.934-9.833-11.578-14.1-16.934-11.289-15.6-22.055-31.9-32.3-48.9A934.195 934.195 0 0 1 260.7 501.4a589.777 589.777 0 0 1-12.5-26.6c-4.022-9.133-7.922-18-11.7-26.6-1.633-3.3-2.767-7.1-3.2-11.133v-.167c-.2-3.833-2.4-7.133-5.6-8.833l-.067-.034c-4.033 6.867-8.5 12.8-13.6 18.167l.034-.033c-5.3 5.566-9.634 12.133-12.734 19.333l-.166.433c-4.7 11.4-8.134 24.634-9.634 38.467l-.066.633c-1.6 14.245-3.211 28.889-4.834 43.934l-1.6.8-.8.8c-8.666-1.767-15.8-7.3-19.666-14.767l-.067-.167c-4.044-7.8-7.667-15.467-10.867-23-8.266-21.233-13.4-45.8-14.1-71.467v-.299c-.3-4.067-.433-8.834-.433-13.6 0-22.2 3.5-43.6 9.967-63.667l-.4 1.466c1.6-5.911 5.089-15.866 10.466-29.866 5.378-14 6.456-23.678 3.234-29.033-1.667-5.5-4.767-10.134-8.834-13.667l-.033-.033a110.423 110.423 0 0 1-11.167-11.167l-.1-.133c-3.755-5.423-7.377-11.2-10.866-17.334-3.489-6.133-6.578-12.178-9.267-18.133-5.5-12.733-11.133-28.7-15.8-45.1l-.733-2.967c-5.3-18.833-11.2-34.766-18.2-50.1l.866 2.134c-3.7-8.4-8-15.667-13-22.3l.2.266c-5.422-7.244-10.266-14.1-14.533-20.566A889.06 889.06 0 0 0 44.767 86.9a113.79 113.79 0 0 1-14.2-21.9l-.3-.667c-1.6-3.233-3-7-3.967-10.9l-.067-.367c-.366-1.166-.566-2.533-.566-3.9 0-2.733.8-5.3 2.2-7.433l-.034.067a10.1 10.1 0 0 1 2.434-4.833 10.282 10.282 0 0 1 4.766-2.4h.067a18.355 18.355 0 0 1 10-2.934c2.8 0 5.5.634 7.867 1.767l-.1-.033c7.3 2.066 13.2 4.133 18.966 6.5l-1.2-.434c10.2 4.311 19.612 8.478 28.234 12.5 9.933 4.733 18.4 9.733 26.4 15.3l-.6-.4a180.735 180.735 0 0 1 12.9 8.867 309.823 309.823 0 0 0 13.7 9.7h11.3c8.6 0 17.733.411 27.4 1.233 9.766.767 18.8 2.6 27.4 5.467l-.8-.233c16.033 4.766 29.8 10.4 42.866 17.166l-1.366-.633c13.177 6.711 25.677 13.833 37.5 21.367 19.633 12.233 36.6 24.766 52.566 38.466l-.566-.466c16.666 14.266 31.8 28.9 46 44.366l.333.4a485.62 485.62 0 0 1 39.2 48.8l1.033 1.567c11.134 15.733 22.367 33.933 32.467 52.8l1.4 2.833c2.7 5.134 5.433 11.434 7.8 17.867l.367 1.1a374.484 374.484 0 0 0 7.233 19 1015.824 1015.824 0 0 0 19 40.7c6.756 13.689 13.089 27 19 39.933l17.733 38.7c6.234 13.533 13.2 25.2 21.3 35.967l-.366-.5c6.766 7.233 15.8 12.3 25.933 14.066l.267.034c12.266 3.067 22.6 6.533 32.6 10.633l-1.567-.566c4.767 2.166 10.9 4.466 17.2 6.5l1.333.366c7.067 2.167 13.2 5.034 18.834 8.634l-.3-.167c10.9 6.1 20.133 12.1 28.933 18.633l-.7-.5a596.578 596.578 0 0 0 27.4 19c4.311 3.222 11.544 7.922 21.7 14.1 10.156 6.178 15.533 11.956 16.133 17.334-3.8-.134-8.3-.234-12.8-.234-16.4 0-32.533 1.067-48.333 3.134l1.867-.2c-17.867 2.4-34.067 6.766-49.3 13l1.333-.467c-3.767 1.633-8.267 3.133-12.933 4.3l-.634.133c-4.733.7-8.4 4.5-8.866 9.234 2.033 2.533 3.666 5.5 4.766 8.7l.067.2c1.133 3.4 2.5 6.333 4.167 9.066l-.1-.2c3.966 7.034 8.233 13.1 13.033 18.7l-.133-.166c4.7 5.8 10 10.833 15.866 15.133l.234.167a1879.472 1879.472 0 0 0 16.933 13.3c5.367 4.2 11.433 8.333 17.733 12.066l.8.434C701 731.467 712 737 723.467 741.633l1.533.534c12.467 5 23.167 10.8 33.1 17.7l-.533-.367c6.466 3.755 12.911 7.922 19.333 12.5 6.422 4.578 12.6 9.011 18.533 13.3a43.091 43.091 0 0 1 6.367 7.967l.1.166c3.033 3.467 7.233 5.834 12 6.434h.1v-1.6c-2.933-2.234-5.1-5.334-6.133-8.9l-.034-.134c-.833-3.4-2.066-6.366-3.733-9.1l.067.134.133.133ZM185.1 140.233c-4.311 0-8.344.134-12.1.4-3.833.267-7.4.967-10.767 2.1l.3-.1v.8h1.6c2.156 3.222 4.867 6.845 8.134 10.867 3.266 4.022 6.222 7.922 8.866 11.7l12.9 26.6 1.6-.8c3.767-2.733 6.667-6.4 8.4-10.7l.067-.167c1.733-4.633 2.733-10.033 2.733-15.633 0-.6 0-1.2-.033-1.8v.1a16.82 16.82 0 0 1-3.6-5.133l-.033-.1-2.7-6.067c-1.767-2.8-4.234-5-7.134-6.4l-.1-.033c-3.133-1.5-5.8-3.4-8.133-5.634Z"/></g><defs><clipPath id="a"><path fill="#fff" d="M0 0h800v800H0z"/></clipPath></defs></svg>
