<svg xmlns="http://www.w3.org/2000/svg" fill="none" viewBox="0 0 800 800"><path fill="#EA2845" fill-rule="evenodd" d="M462.175 50a44.524 44.524 0 0 0-14.1 2.5c40.375 26.55-7.25 65 15 97.5A55.874 55.874 0 0 1 490 94.125c7.125-5.925 11.7-8.05 10.175-17.85C497.7 60.225 476.3 50 462.175 50Zm57.5 10.35c-5.575 28.075-12.5 29.1-33.075 47.175a45.527 45.527 0 0 0-13.175 54.775c-85-33-193.95-52.95-273.825 4.15-28.725 20.525-46.25 50-81.675 62.025-22.9 7.85-45.4 5.525-59.75 28.225a35.326 35.326 0 0 0 1.4 45.8c4.275 4.375 12.5 7.175 15.9 11.625 1.975 2.5 1.925 5 3.8 8.325a65.003 65.003 0 0 0 14.1 20.7c3.675 3.025 16.3 5.975 18.45 9.2 2.7 4.025-4.3 20 1.575 22.5 3.95 1.825 15.525-18.6 16.65-20.4-2.3 16.075-5.325 44.6 12.75 20.85 8.575-11.275 9.1-15 23.525-17.5a204.88 204.88 0 0 1 27.925-2.9A209.05 209.05 0 0 1 409.8 545.45c-2.7-12.5-19.025-32.5-34.225-27.75-6.475 2-8.875 13.175-13.125 19.65a94.319 94.319 0 0 1-19.625 21.7 117.174 117.174 0 0 0-1.8-36.3c-4.55 18.7-13.675 49.725-36.65 44.7a41.294 41.294 0 0 1-33.2-28.55c-2.975-19 17.1-41.275-15.175-42.85-64.75-3.175-49.775 92.05-11.55 116.875A81.798 81.798 0 0 0 219.075 620a172.318 172.318 0 0 0 160.984 6.399 172.325 172.325 0 0 0 95.916-129.449 176.443 176.443 0 0 1-.375 77.125 180.308 180.308 0 0 1-13.85 38.975 169.53 169.53 0 0 1-32.5 45.25c-7.85 7.775-22.25 15.6-27.2 23.525a335.21 335.21 0 0 0 88-24.2A290.951 290.951 0 0 1 377.5 750 289.721 289.721 0 0 0 610 602.275a291.437 291.437 0 0 1-48.625 116.7A288.272 288.272 0 0 0 685.75 524.4a290.548 290.548 0 0 1 5.225 87.5A310.443 310.443 0 0 0 738.2 347.75a393.852 393.852 0 0 0-42.225-99.05 370.946 370.946 0 0 0-23.475-34.85c-3.325-4.325-21.1-20.15-21.1-25-.15.483-.275.483-.375 0 0 81.2-87.5 133.325-160.775 111.575A124.998 124.998 0 0 0 603.9 196.25a125 125 0 0 0-84.225-135.9Z" clip-rule="evenodd"/></svg>
