<svg xmlns="http://www.w3.org/2000/svg" fill="none" viewBox="0 0 800 800"><path fill="#000" d="M188.766 284.471h150.888v11.993H202.598v90.261h128.883v11.992H202.598v99.098h138.627v11.993H188.766V284.471Zm164.405 0h16.031l71.043 99.098 72.615-99.098 98.767-125.877-162.266 235.389 83.617 115.825h-16.66l-76.073-105.41-76.387 105.41h-16.346l84.246-115.825-78.587-109.512Zm185.78 11.993v-11.993h171.948v11.993h-79.216v213.344h-13.831V296.464h-78.901ZM0 284.471h17.29l238.407 356.754-98.523-131.417L14.46 301.513l-.629 208.295H0V284.471Zm709.506 209.725c-2.826 0-4.945-2.189-4.945-5.019s2.119-5.019 4.945-5.019c2.859 0 4.945 2.189 4.945 5.019s-2.086 5.019-4.945 5.019Zm13.591-13.204h7.401c.101 4.008 3.027 6.703 7.333 6.703 4.811 0 7.536-2.897 7.536-8.32v-34.359h7.536v34.392c0 9.769-5.652 15.394-15.004 15.394-8.781 0-14.802-5.457-14.802-13.81Zm39.662-.438h7.469c.639 4.615 5.147 7.545 11.64 7.545 6.055 0 10.496-3.133 10.496-7.444 0-3.706-2.826-5.929-9.252-7.445l-6.257-1.515c-8.78-2.055-12.784-6.299-12.784-13.441 0-8.657 7.065-14.417 17.662-14.417 9.857 0 17.056 5.76 17.493 13.946h-7.333c-.707-4.48-4.609-7.276-10.261-7.276-5.954 0-9.924 2.863-9.924 7.242 0 3.47 2.557 5.457 8.881 6.939l5.349 1.314c9.958 2.324 14.062 6.366 14.062 13.676 0 9.297-7.199 15.124-18.704 15.124-10.765 0-17.998-5.558-18.537-14.248Z"/></svg>
