<svg xmlns="http://www.w3.org/2000/svg" fill="none" viewBox="0 0 800 800"><g clip-path="url(#a)"><path fill="#000" d="M725.969 607.79 451.615 25.161A44.032 44.032 0 0 0 414.123.093a43.535 43.535 0 0 0-40.085 20.78L76.471 502.831a45.072 45.072 0 0 0 .499 48.382l145.483 225.294c11.303 17.368 32.686 25.231 52.549 19.324l422.189-124.882a46.266 46.266 0 0 0 29.057-25.088 45.272 45.272 0 0 0-.259-38.091l-.02.02Zm-61.424 24.989L306.292 738.715c-10.929 3.251-21.418-6.222-19.145-17.251L415.14 108.602c2.393-11.467 18.228-13.282 23.233-2.673l236.941 503.158a17.11 17.11 0 0 1-10.789 23.692h.02Z"/></g><defs><clipPath id="a"><path fill="#fff" d="M0 0h800v800H0z"/></clipPath></defs></svg>
