<svg xmlns="http://www.w3.org/2000/svg" fill="none" viewBox="0 0 800 800"><g fill="#00D8FF" clip-path="url(#a)"><path d="M400.013 455.413c30.914 0 55.975-25.061 55.975-55.975s-25.061-55.975-55.975-55.975c-30.915 0-55.975 25.061-55.975 55.975s25.06 55.975 55.975 55.975Z"/><path fill-rule="evenodd" d="M404.125 281.45c95.438.65 199.563 7.613 271.038 71.35 2.1 1.875 4.125 3.825 6.1 5.838 16.862 17.187 25.675 44.937 12.062 67.775C665.4 473.3 602.95 493.75 542.488 506.338c-90.425 18.825-184.975 18.975-275.363 2.4-52.012-9.55-105.2-26.288-142.162-61.3-14.388-13.625-26.688-31.55-24.763-51.5 3.125-32.275 34.088-52.988 60.15-67.013 72.388-38.95 160.588-47.662 243.775-47.475Zm-6.925 14.663c-90.3.612-188.037 6.375-257.762 64.112a112.504 112.504 0 0 0-7.05 6.338A88.786 88.786 0 0 0 128.15 371c-12.237 13.75-16.45 35.838-4.9 52.35 11.625 16.613 29.275 28.6 47.45 38.375 67.975 36.55 148.3 43.038 226.613 43.313 79.287.287 161.05-6.938 231.087-43.15 27.9-14.438 59.3-35.638 58.188-62.938-1.025-25.05-25.45-40.525-43.738-51.575-4.95-2.987-10.037-5.75-15.2-8.35-69.525-34.837-151-43.087-230.45-42.912Z" clip-rule="evenodd"/><path fill-rule="evenodd" d="M526.438 133.788c34.912.887 53 42.862 55.387 73.862.475 6.163.65 12.35.575 18.538-.075 6.7-.437 13.4-1.025 20.075-7.362 82.65-45.1 161.362-89.537 234.05-43.463 71.1-96.463 142-168.563 174.95-23.837 10.9-52.187 17.625-73.287 5.462-28.925-16.662-32.088-55.637-31.55-85.2.137-7.262.612-14.525 1.362-21.762 11.113-107 65.35-208.363 133.225-295.688 39.6-50.95 86.713-101.487 145.4-119.787 9.238-2.888 16.575-4.638 28.013-4.5Zm-1.675 14.65c-40.988.65-77.788 31.025-110.375 62.587-85.675 82.963-148.813 193.3-174.213 309.013-1.962 8.962-3.612 17.987-4.825 27.075-.937 7.037-1.625 14.112-1.987 21.212-.288 5.65-.388 11.313-.213 16.975.125 4.425.413 8.85.9 13.25.363 3.363.85 6.713 1.463 10.038.462 2.462 1 4.912 1.625 7.35a90.09 90.09 0 0 0 1.737 5.887c5.113 15.413 18.288 30.138 35.975 30.625 41.263 1.125 80.113-28.962 113.7-61.662 58.963-57.388 102.9-129.5 137.225-205.3 27.7-61.2 53.038-127.725 38.888-195.088a112.233 112.233 0 0 0-1.875-7.575 92.296 92.296 0 0 0-1.975-6.037c-5.5-14.988-18.438-28.388-36.05-28.35Z" clip-rule="evenodd"/><path fill-rule="evenodd" d="M276.363 134.338c44.55.862 84.562 31.1 120.087 64.962 64.825 61.788 112.638 140.388 148.913 223.113 28.1 64.087 53.95 136.025 30.975 203.65-7.238 21.312-25.55 40.812-49.963 41.312-44.762.9-86.25-31.65-122.25-66.687-90.312-87.925-157.362-204-180.337-327.1-1.65-8.8-2.963-17.675-3.863-26.588-.737-7.275-1.2-14.587-1.325-21.9-.1-5.9.025-11.8.438-17.675.275-3.925.675-7.825 1.212-11.712a134.71 134.71 0 0 1 1.975-10.888c.538-2.387 1.138-4.75 1.825-7.1 6.738-23.037 24.263-43.562 52.313-43.387ZM274.675 149c-26.087.575-38.025 31.338-40.425 52.925a170.265 170.265 0 0 0-.925 13.35c-.175 5.7-.1 11.413.188 17.113 4.1 82.487 40.975 162.237 85.475 235.262 41.9 68.75 92.5 137.225 162.1 172.425 20.1 10.163 44.525 18.15 61.887 8.55 21.775-12.05 24.45-40.762 25.613-62.162.312-5.825.35-11.675.162-17.513-.225-7.325-.8-14.637-1.662-21.912-8.025-67.963-38.125-132.275-72.7-193.05-43.025-75.6-95.738-150.95-170.338-190.313-15.45-8.15-32.175-14.812-49.375-14.675Z" clip-rule="evenodd"/></g><defs><clipPath id="a"><path fill="#fff" d="M0 0h800v800H0z"/></clipPath></defs></svg>
