<svg xmlns="http://www.w3.org/2000/svg" fill="none" viewBox="0 0 800 800"><path fill="url(#a)" d="M400 159.375c-106.667 0-173.333 53.333-200 160 40-53.333 86.667-73.333 140-60 30.43 7.607 52.179 29.683 76.253 54.12 39.218 39.807 84.608 85.88 183.747 85.88 106.667 0 173.333-53.333 200-160-40 53.333-86.667 73.333-140 60-30.43-7.607-52.179-29.683-76.253-54.12-39.218-39.807-84.608-85.88-183.747-85.88Zm-200 240c-106.667 0-173.333 53.333-200 160 40-53.333 86.667-73.333 140-60 30.43 7.607 52.179 29.683 76.253 54.12 39.218 39.807 84.608 85.88 183.747 85.88 106.667 0 173.333-53.333 200-160-40 53.333-86.667 73.333-140 60-30.43-7.607-52.179-29.683-76.253-54.12-39.218-39.807-84.608-85.88-183.747-85.88Z"/><defs><linearGradient id="a" x1="-2222.22" x2="66870.9" y1="15519.4" y2="55356.8" gradientUnits="userSpaceOnUse"><stop stop-color="#2298BD"/><stop offset="1" stop-color="#0ED7B5"/></linearGradient></defs></svg>
