<svg xmlns="http://www.w3.org/2000/svg" fill="none" viewBox="0 0 800 800"><path fill="#3178C6" d="M717.2 50H82.8C64.685 50 50 64.685 50 82.8v634.4c0 18.115 14.685 32.8 32.8 32.8h634.4c18.115 0 32.8-14.685 32.8-32.8V82.8c0-18.115-14.685-32.8-32.8-32.8Z"/><path fill="#fff" fill-rule="evenodd" d="M456.125 593.975v76.7a162.332 162.332 0 0 0 44.1 14.375 288.947 288.947 0 0 0 53.65 4.8 249.238 249.238 0 0 0 52.2-5.275 127.742 127.742 0 0 0 43.375-17.5 88.55 88.55 0 0 0 29.525-31.65 111.729 111.729 0 0 0 4.65-84.85A85.228 85.228 0 0 0 665.7 522.65a130.896 130.896 0 0 0-28.075-21.925 300.789 300.789 0 0 0-36.925-18.35c-10-4.15-19-8.183-27-12.1a137.462 137.462 0 0 1-20.325-11.975 52.23 52.23 0 0 1-12.9-12.95 27.282 27.282 0 0 1-4.525-15.45 25.975 25.975 0 0 1 4.05-14.275 35.008 35.008 0 0 1 11.475-10.9 60.96 60.96 0 0 1 18.15-7.075 105.243 105.243 0 0 1 23.9-2.5c6.759.023 13.508.508 20.2 1.45a157.333 157.333 0 0 1 21.4 4.425 149.944 149.944 0 0 1 20.9 7.5 116.432 116.432 0 0 1 18.775 10.55V347.5a187.697 187.697 0 0 0-38.125-10 310.66 310.66 0 0 0-47.5-3.225 219.17 219.17 0 0 0-51.6 5.875 130.983 130.983 0 0 0-42.9 18.325A91.37 91.37 0 0 0 465.4 390.25a93.273 93.273 0 0 0-10.775 46.125 89.697 89.697 0 0 0 19.725 58.5 150 150 0 0 0 59.875 40.975c10.5 4.333 20.292 8.575 29.375 12.725a161.496 161.496 0 0 1 23.55 12.925 61.567 61.567 0 0 1 15.65 14.625 30.003 30.003 0 0 1 5.75 17.975 27.5 27.5 0 0 1-3.6 13.8 31.726 31.726 0 0 1-10.875 11.025 59.526 59.526 0 0 1-18.15 7.3 109.44 109.44 0 0 1-25.45 2.625 144.335 144.335 0 0 1-49.225-8.75 146.86 146.86 0 0 1-45.125-26.125Zm-128.85-190.95h100V339.85H148.45v63.175H248v281.35h79.275v-281.35Z" clip-rule="evenodd"/></svg>
