<svg xmlns="http://www.w3.org/2000/svg" fill="none" viewBox="0 0 800 800"><path fill="#019833" d="M400.89 6.076 7.61 398.086l393.28 393.821 391.474-393.821L400.89 6.076Z"/><path fill="#66FE98" d="M400.822 42.073V8.981L10.192 398.157h33.472L400.822 42.073Z"/><path fill="#45FE02" d="M400.822 42.073V8.981l391.844 389.176h-36.221L400.822 42.073Z"/><path fill="#017D17" d="M400.822 755.91v36.635L10.192 398.157h33.472L400.822 755.91Z"/><path fill="#005D04" d="M400.822 755.91v36.635l391.844-394.388h-36.221L400.822 755.91Z"/><path fill="#000" d="M204.594 717.793h-75.722l-29.573-28.819V138.677H75.83l-20.094-20.121V57.043l20.816-22.578h264.825l23.81 23.838v58.385l-19.785 24.115h-20.01V326.82l188.287-186.017h-10.512l-21.899-23.617V55.278l21.516-19.751H770.09l21.155 21.183v58.552l-586.65 602.531Z"/><path fill="#000" d="M400.822 797.952 1.556 398.157 400.822 0l397.622 398.157-397.622 399.795ZM13.787 398.157l387.035 387.555 385.385-387.555L400.822 12.249 13.787 398.157Z"/><path fill="#FEFEFE" d="m337.977 70.792 11.763-7.598-12.019-12.477H82.976L70.033 63.68v49.028l14.35 14.369 6.845-14.369-9.002-9.018V69.127l6.752-6.011 240.51.296 8.489 7.38Z"/><path fill="#FEFEFE" d="M130.609 111.542v573.803l8.068 7.682-6.465 12.218-16.968-16.713V126.419l15.365-14.877Z"/><path fill="gray" d="m89.45 111.542-5.067 15.533h30.773l17.803-15.533H89.451Z"/><path fill="#FEFEFE" d="m519.941 111.742-10.761-7.602V73.335l11.256-11.271h234.861l9.005 12.022 12.816-10.114-13.193-12.053H511.43l-12.569 12.585v49.404l13.236 11.978m-204.25 237.541-24.526 59.592 276.881-278.004-1.354-33.631-251.001 252.043Z"/><path fill="gray" d="m337.423 70.571 12.317-7.377v48.348l-14.061 14.08h-27.324l-.507 237.805-24.433 59.455v-311.34h45.631l8.489-6.907-.112-34.064Zm426.045.159 13.649-6.758v44.149L195.823 705.245h-63.611l6.207-11.735 48.856.003L763.552 97.678l-.084-26.948Zm-204.62 40.654-14.157 14.222-32.595.28 7.96-14.288c.265 0 38.792-.214 38.792-.214Z"/><path fill="#CCC" d="m518.204 61.603-8.996 9.006v33.07l7.878 7.888h41.625v31.954l-275.362 279.48V111.963h45.762l9.388-9.401V69.096l-8.666-6.705H89.005l-7.878 7.89v34.186l8.009 8.022h41.89v572.769l7.878 7.887h47.602l577.055-596.24V70.61l-8.996-9.006H518.204Z"/><path fill="gray" d="M186.829 693.908H138.59l-8.324-8.336V113.248H88.822l-8.455-8.467V69.964l8.324-8.333h241.404l9.167 7.091v34.154l-9.833 9.846h-45.32v308.424l273.843-277.94V112.33h-41.18l-8.324-8.336v-33.7l9.438-9.453h236.993l9.441 9.453v26.92l-.211.221-577.28 596.473Zm-47.607-1.522h46.963L762.801 96.601V70.923l-8.551-8.56H518.518l-8.551 8.56v32.442l7.434 7.443h42.073v33.024l-.218.221L282.59 424.856V111.203h46.207l8.943-8.959V69.469l-8.165-6.319H89.32l-7.434 7.446v33.557l7.568 7.576h42.331V684.94l7.437 7.446Z"/><path fill="#CCC" d="M420.439 447.686c-.439.09-.844.295-1.183.591l-11.16 9.597a2.613 2.613 0 0 0-.722 1.117l-11.162 31.297a2.598 2.598 0 0 0 .591 2.696l8.535 8.544a2.597 2.597 0 0 0 1.84.726h34.469a2.584 2.584 0 0 0 1.836-.726l8.996-9.07c.312-.312.536-.698.657-1.118l9.588-32.94a2.601 2.601 0 0 0-.657-2.562l-7.421-7.43a2.574 2.574 0 0 0-1.837-.722h-31.844a2.434 2.434 0 0 0-.526 0Zm-63.16 88.227a2.593 2.593 0 0 0-1.97 1.908l-4.268 16.962a2.595 2.595 0 0 0 2.494 3.222h20.289L323.53 701.787a2.594 2.594 0 0 0 2.431 3.421h73.205a2.595 2.595 0 0 0 2.496-1.778l4.794-15.449a2.598 2.598 0 0 0-1.721-3.24 2.593 2.593 0 0 0-.776-.112h-16.544l49.768-145.295a2.594 2.594 0 0 0-2.431-3.421h-76.95a2.855 2.855 0 0 0-.523 0Zm232.95.526a2.598 2.598 0 0 0-1.448.856l-15.231 17.223h-24.227l-16.153-16.762a2.57 2.57 0 0 0-1.836-.791h-57.843a2.59 2.59 0 0 0-2.431 1.709l-5.317 15.913a2.596 2.596 0 0 0 2.428 3.418h15.496l-48.193 142.204a2.599 2.599 0 0 0 2.431 3.421h61.584a2.597 2.597 0 0 0 2.432-1.709l4.725-13.874a2.594 2.594 0 0 0-2.428-3.418H493.45l30.727-96.844h55.611l-35.06 112.492a2.588 2.588 0 0 0 1.719 3.237c.252.078.513.116.775.116h59.418a2.595 2.595 0 0 0 2.365-1.579l5.317-12.756a2.59 2.59 0 0 0-2.363-3.549h-10.767l31.253-98.487h52.918l-35.586 113.018a2.593 2.593 0 0 0 2.497 3.353h65.261a2.6 2.6 0 0 0 2.431-1.644l5.316-13.874a2.59 2.59 0 0 0-2.428-3.483h-12.937l39.331-127.873a2.6 2.6 0 0 0-.395-2.368l-12.212-16.436a2.589 2.589 0 0 0-2.101-.987h-46.68a2.581 2.581 0 0 0-1.905.791l-14.708 16.171H645.51l-15.231-16.697a2.586 2.586 0 0 0-1.906-.791h-37.621a2.855 2.855 0 0 0-.523 0Z"/><path fill="#000" d="M401.117 505.911c1.629 1.569 3.758 2.428 5.918 2.428.047 0 .093 0 .143-.003h34.363c2.31.072 4.495-.819 6.266-2.521l8.974-9.056a8.66 8.66 0 0 0 2.198-3.719l9.584-32.934a8.668 8.668 0 0 0-2.194-8.567l-7.499-7.511c-1.665-1.606-3.854-2.49-6.061-2.428h-31.626a8.526 8.526 0 0 0-1.357.031l-.638.1c-1.463.308-2.83.989-3.898 1.93l-11.162 9.6-.128.115a8.713 8.713 0 0 0-2.378 3.632l-11.138 31.225c-1.117 3.116-.339 6.652 2.014 9.049l8.619 8.629Zm50.285-52.143 4.903 4.909-8.766 30.12-7.302 7.371-31.652.003-5.905-5.914 10.139-28.421 9.382-8.068h29.201Zm302.335 96.99-12.212-16.436-.109-.14a8.69 8.69 0 0 0-6.926-3.299h-46.53c-2.419-.056-4.713.921-6.379 2.639l-13.024 14.322h-20.361l-13.422-14.714-.125-.134c-1.662-1.718-3.963-2.636-6.275-2.64H590.97a8.67 8.67 0 0 0-1.358.032l-.628.096c-1.871.389-3.586 1.407-4.76 2.78l-13.416 15.172H551.91l-14.366-14.911a8.745 8.745 0 0 0-6.21-2.642h-57.862a8.702 8.702 0 0 0-8.13 5.718l-5.367 16.046c-1.522 4.536.928 9.467 5.466 10.992a8.79 8.79 0 0 0 2.73.448h7.01l-45.478 134.195c-1.513 4.529.937 9.457 5.469 10.982a8.824 8.824 0 0 0 2.733.448h61.603c3.63-.009 6.898-2.31 8.171-5.83l4.738-13.902c1.516-4.532-.934-9.46-5.469-10.985a8.733 8.733 0 0 0-2.73-.452h-2.456l26.867-84.672h42.889l-32.611 104.626c-1.397 4.575 1.186 9.435 5.75 10.832.843.259 1.746.364 2.565.383h59.471c3.455-.028 6.561-2.101 7.928-5.32l5.36-12.856c1.759-4.448-.423-9.5-4.85-11.256a8.749 8.749 0 0 0-3.172-.619h-2.452l27.389-86.316h40.172l-33.112 105.158c-1.391 4.573 1.193 9.432 5.753 10.826a8.578 8.578 0 0 0 2.518.383h65.267c3.605-.022 6.83-2.185 8.153-5.55l5.351-13.961c1.64-4.492-.676-9.485-5.168-11.129a8.748 8.748 0 0 0-2.976-.529h-4.7l36.878-119.9a8.677 8.677 0 0 0-1.295-7.885Zm-52.056 139.953h16.09l-2.621 6.833h-58.135l36.644-116.367h-65.668l-35.113 110.655h13.796l-2.381 5.712H551.95l36.106-115.841h-68.333l-34.587 109.008h14.176l-2.328 6.833h-54.182l49.351-145.625h-19.104l2.963-8.868h53.812l16.912 17.553h29.557l15.984-18.079 34.596-.004 15.95 17.492h31.116l15.424-16.962h43.487l10.073 13.559-41.242 134.101Zm-295.157-11.785c-.84-.258-1.68-.361-2.565-.383h-8.031l47.023-137.273c1.522-4.538-.931-9.466-5.469-10.991a8.76 8.76 0 0 0-2.73-.449H358.02a8.695 8.695 0 0 0-1.36.031l-.663.106a8.619 8.619 0 0 0-6.59 6.369l-4.271 16.978c-1.155 4.638 1.678 9.354 6.332 10.521.66.162 1.341.249 2.067.252h11.713l-47.486 135.767c-1.522 4.538.934 9.466 5.466 10.988a8.824 8.824 0 0 0 2.733.448h73.245c3.748 0 7.045-2.375 8.268-6.057l4.8-15.474c1.398-4.573-1.186-9.435-5.75-10.833Zm-75.617 20.196 51.49-147.203h-24.361l2.496-9.921h69.305l-50.939 148.713h20.339l-2.608 8.411h-65.722Z"/></svg>
